<svg width="53" height="53" viewBox="0 0 53 53" fill="none" xmlns="http://www.w3.org/2000/svg">
<g clip-path="url(#clip0_1506_18609)">
<rect width="53" height="53" rx="26.5" fill="white"/>
<rect x="-5" y="-5" width="64" height="64" rx="24" fill="url(#paint0_linear_1506_18609)"/>
<path d="M28.1725 18.0854L29.5475 16.7104C30.0887 16.169 30.7312 15.7396 31.4383 15.4467C32.1455 15.1537 32.9034 15.0029 33.6688 15.0029C34.4342 15.0029 35.1921 15.1537 35.8993 15.4467C36.6064 15.7396 37.2489 16.169 37.79 16.7104C38.3313 17.2515 38.7607 17.894 39.0537 18.6011C39.3467 19.3083 39.4975 20.0662 39.4975 20.8316C39.4975 21.597 39.3467 22.3549 39.0537 23.0621C38.7607 23.7692 38.3313 24.4117 37.79 24.9529L34.7425 28.0003L33.45 29.2928C32.9083 29.8347 32.2649 30.2645 31.5569 30.5575C30.8489 30.8504 30.09 31.001 29.3237 31.0004C28.5575 30.9998 27.7988 30.8481 27.0913 30.5541C26.3837 30.26 25.741 29.8293 25.2 29.2866C24.6401 28.7269 24.2005 28.0586 23.9081 27.3228C23.6158 26.587 23.4769 25.7992 23.5 25.0078" stroke="white" stroke-width="2" stroke-linecap="round" stroke-linejoin="round"/>
<path d="M24.8275 33.9149L23.4525 35.2899C22.9107 35.8318 22.2674 36.2615 21.5593 36.5545C20.8513 36.8475 20.0924 36.998 19.3262 36.9975C18.5599 36.9969 17.8013 36.8452 17.0937 36.5511C16.3861 36.2571 15.7434 35.8264 15.2025 35.2837C14.1125 34.1899 13.501 32.7082 13.5024 31.164C13.5038 29.6198 14.118 28.1393 15.21 27.0474L19.55 22.7074C20.0911 22.1661 20.7336 21.7367 21.4408 21.4438C22.1479 21.1508 22.9058 21 23.6712 21C24.4366 21 25.1946 21.1508 25.9017 21.4438C26.6088 21.7367 27.2513 22.1661 27.7925 22.7074C28.3547 23.2671 28.7963 23.9361 29.09 24.6731C29.3837 25.4101 29.5232 26.1994 29.5 26.9924" stroke="white" stroke-width="2" stroke-linecap="round" stroke-linejoin="round"/>
</g>
<defs>
<linearGradient id="paint0_linear_1506_18609" x1="56.9055" y1="63.6289" x2="-18.708" y2="15.1914" gradientUnits="userSpaceOnUse">
<stop stop-color="#DD3305"/>
<stop offset="0.5" stop-color="#FF6B3A"/>
<stop offset="1" stop-color="#FFB347"/>
</linearGradient>
<clipPath id="clip0_1506_18609">
<rect width="53" height="53" rx="26.5" fill="white"/>
</clipPath>
</defs>
</svg>
