<svg width="42" height="42" viewBox="0 0 42 42" fill="none" xmlns="http://www.w3.org/2000/svg">
<g clip-path="url(#clip0_1500_18247)">
<rect x="-408" y="-409" width="859" height="860" fill="url(#paint0_linear_1500_18247)"/>
<path d="M19.901 30.9394C19.6374 31.052 19.3988 30.9892 19.1574 30.9004C18.7781 30.7608 18.4961 30.4939 18.2222 30.2111C17.9361 29.9158 17.6407 29.6296 17.3535 29.3354C17.0233 28.9972 16.7164 28.6438 16.5885 28.1691C16.5278 27.944 16.4538 27.722 16.376 27.5021C16.2598 27.1731 16.1297 26.8491 16.0159 26.5193C15.9497 26.3273 15.9066 26.1273 15.8481 25.9325C15.778 25.6992 15.7011 25.4679 15.6298 25.235C15.5757 25.0582 15.5295 24.879 15.4731 24.703C15.4097 24.5055 15.3359 24.3113 15.2721 24.1139C15.2096 23.9203 15.1548 23.7242 15.0949 23.5298C15.067 23.4393 15.035 23.3502 15.0047 23.2605C14.9639 23.1396 14.9222 23.0192 14.8824 22.898C14.813 22.6867 14.7428 22.4757 14.6767 22.2634C14.5876 21.9771 14.5052 21.6886 14.414 21.403C14.3281 21.1341 14.2186 20.8719 14.1486 20.5991C14.0626 20.2643 13.9453 19.941 14.0284 19.5693C14.1039 19.2317 14.2558 18.9388 14.3999 18.6376C14.6222 18.1727 14.8584 17.7144 15.0883 17.2532C15.3731 16.6818 15.6549 16.1089 15.943 15.5392C16.2224 14.9865 16.5118 14.4389 16.7902 13.8857C17.0605 13.3485 17.3214 12.8065 17.5885 12.2676C17.741 11.9598 17.885 11.647 18.155 11.4163C18.4095 11.1987 18.6834 11.0313 19.0305 11.0284C20.274 11.0177 21.5176 11.0021 22.7612 11C23.1663 10.9993 23.5424 11.1233 23.8708 11.3703C23.9491 11.4292 24.0226 11.4959 24.0921 11.5654C24.6365 12.1103 25.1723 12.6642 25.7252 13.2003C26.1403 13.6028 26.3175 14.0875 26.2451 14.6496C26.2179 14.8613 26.0939 15.061 26.0099 15.2645C25.8216 15.721 25.5192 16.1244 25.405 16.6168C25.3329 16.928 25.4715 17.1508 25.6737 17.3438C26.0478 17.7009 26.4332 18.0461 26.8162 18.3937C27.0558 18.611 27.3108 18.8122 27.5384 19.0411C27.7609 19.2648 27.9 19.5443 27.9679 19.8567C28.0235 20.1127 28.01 20.3648 27.903 20.6024C27.8357 20.752 27.7477 20.8944 27.6536 21.0292C27.4394 21.3362 27.2172 21.6377 26.9954 21.9392C26.8033 22.2004 26.6048 22.4569 26.4135 22.7187C26.2287 22.9716 26.0525 23.2308 25.8669 23.4831C25.6709 23.7494 25.4665 24.0095 25.2692 24.2748C25.1305 24.4613 24.9991 24.6532 24.8617 24.8407C24.6523 25.1263 24.4396 25.4094 24.23 25.6948C23.9411 26.0882 23.6545 26.4833 23.3656 26.8766C23.1565 27.1614 22.9424 27.4427 22.7358 27.7293C22.5443 27.9949 22.3622 28.2674 22.1712 28.5335C22.011 28.7566 21.844 28.9747 21.6799 29.195C21.4808 29.4623 21.2834 29.7309 21.0817 29.9963C20.9433 30.1785 20.814 30.3711 20.6537 30.5319C20.4505 30.7359 20.2112 30.8959 19.901 30.9394ZM22.5775 14.8014C22.692 14.5749 22.809 14.3496 22.9203 14.1215C23.1309 13.6902 23.3432 13.2595 23.5451 12.824C23.6599 12.5763 23.5016 12.1326 23.2213 12.0617C23.0614 12.0213 22.8971 11.9717 22.7348 11.9719C21.8754 11.9728 21.0161 11.9893 20.1568 11.9982C19.835 12.0015 19.5131 11.997 19.1913 11.9993C18.9393 12.001 18.7763 12.1498 18.6623 12.3539C18.5183 12.6116 18.387 12.8765 18.2535 13.1399C17.9121 13.8136 17.5713 14.4875 17.2327 15.1626C17.0384 15.5501 16.8488 15.94 16.6571 16.3288C16.3461 16.9597 16.0356 17.5908 15.7238 18.2213C15.4981 18.6776 15.2732 19.1343 15.0432 19.5884C14.9208 19.8299 15.0153 20.2458 15.2477 20.3588C15.3742 20.4202 15.5191 20.4759 15.6563 20.4773C16.6531 20.4872 17.6499 20.4824 18.6468 20.4828C18.8651 20.4829 18.9368 20.583 18.8873 20.7956C18.8246 21.0648 18.7718 21.3364 18.7129 21.6065C18.6207 22.0295 18.5278 22.4524 18.4337 22.875C18.3518 23.2429 18.2654 23.6099 18.1854 23.9783C18.1265 24.2494 18.0803 24.5233 18.018 24.7935C17.9559 25.0623 17.8745 25.3265 17.8126 25.5953C17.694 26.11 17.5785 26.6256 17.4715 27.1429C17.4264 27.3609 17.3962 27.5832 17.378 27.8051C17.3654 27.9594 17.5413 28.2121 17.68 28.2407C17.9009 28.2861 18.1244 28.2957 18.2883 28.0938C18.3838 27.9762 18.4728 27.8532 18.5613 27.7301C18.8026 27.3944 19.0383 27.0546 19.2832 26.7217C19.4934 26.436 19.7163 26.1598 19.9279 25.8751C20.1776 25.5389 20.4205 25.1976 20.6676 24.8594C20.8734 24.5779 21.0817 24.2983 21.2876 24.0169C21.5438 23.6668 21.7964 23.314 22.0549 22.9656C22.2846 22.656 22.5243 22.3538 22.752 22.0427C23.0718 21.6058 23.3849 21.1639 23.7001 20.7236C23.9137 20.4252 24.1228 20.1235 24.3397 19.8275C24.6514 19.4018 24.9821 18.9894 25.2782 18.5532C25.4744 18.2641 25.2474 17.7473 24.9347 17.6759C24.7581 17.6356 24.5749 17.6081 24.3942 17.6057C23.7713 17.5973 23.1482 17.5992 22.5252 17.6039C22.2161 17.6062 21.9063 17.6423 21.5984 17.6283C21.306 17.615 21.2774 17.5811 21.3336 17.3045C21.3454 17.2466 21.3769 17.1918 21.4041 17.1381C21.687 16.5813 21.9712 16.0251 22.2542 15.4683C22.3627 15.2547 22.4691 15.04 22.5775 14.8014Z" fill="white"/>
</g>
<defs>
<linearGradient id="paint0_linear_1500_18247" x1="422.888" y1="513.201" x2="-592.674" y2="-136.605" gradientUnits="userSpaceOnUse">
<stop stop-color="#DD3305"/>
<stop offset="0.5" stop-color="#FF6B3A"/>
<stop offset="1" stop-color="#FFB347"/>
</linearGradient>
<clipPath id="clip0_1500_18247">
<rect width="42" height="42" rx="21" fill="white"/>
</clipPath>
</defs>
</svg>
