<svg width="20" height="20" viewBox="0 0 20 20" fill="none" xmlns="http://www.w3.org/2000/svg">
<g clip-path="url(#clip0_1500_18264)">
<path d="M4.375 12.4004C4.56728 12.4004 4.75173 12.4763 4.8877 12.6123C5.02366 12.7483 5.09961 12.9327 5.09961 13.125V16.875C5.09961 17.0673 5.02366 17.2517 4.8877 17.3877C4.75173 17.5237 4.56728 17.5996 4.375 17.5996C4.18272 17.5996 3.99827 17.5237 3.8623 17.3877C3.72634 17.2517 3.65039 17.0673 3.65039 16.875V13.125C3.65039 12.9327 3.72634 12.7483 3.8623 12.6123C3.99827 12.4763 4.18272 12.4004 4.375 12.4004ZM10 8.65039C10.1923 8.65039 10.3767 8.72634 10.5127 8.8623C10.6487 8.99827 10.7246 9.18272 10.7246 9.375V16.875C10.7246 17.0673 10.6487 17.2517 10.5127 17.3877C10.3767 17.5237 10.1923 17.5996 10 17.5996C9.80772 17.5996 9.62327 17.5237 9.4873 17.3877C9.35134 17.2517 9.27539 17.0673 9.27539 16.875V9.375C9.27539 9.18272 9.35134 8.99827 9.4873 8.8623C9.62327 8.72634 9.80772 8.65039 10 8.65039ZM15.625 14.9004C15.8173 14.9004 16.0017 14.9763 16.1377 15.1123C16.2737 15.2483 16.3496 15.4327 16.3496 15.625V16.875C16.3496 17.0673 16.2737 17.2517 16.1377 17.3877C16.0017 17.5237 15.8173 17.5996 15.625 17.5996C15.4327 17.5996 15.2483 17.5237 15.1123 17.3877C14.9763 17.2517 14.9004 17.0673 14.9004 16.875V15.625C14.9004 15.4327 14.9763 15.2483 15.1123 15.1123C15.2483 14.9763 15.4327 14.9004 15.625 14.9004ZM15.625 2.40039C15.8173 2.40039 16.0017 2.47634 16.1377 2.6123C16.2737 2.74827 16.3496 2.93272 16.3496 3.125V11.1504H17.5C17.6923 11.1504 17.8767 11.2263 18.0127 11.3623C18.1487 11.4983 18.2246 11.6827 18.2246 11.875V13.125C18.2246 13.3173 18.1487 13.5017 18.0127 13.6377C17.8767 13.7737 17.6923 13.8496 17.5 13.8496H13.75C13.5577 13.8496 13.3733 13.7737 13.2373 13.6377C13.1013 13.5017 13.0254 13.3173 13.0254 13.125V11.875C13.0254 11.6827 13.1013 11.4983 13.2373 11.3623C13.3733 11.2263 13.5577 11.1504 13.75 11.1504H14.9004V3.125C14.9004 2.93272 14.9763 2.74827 15.1123 2.6123C15.2483 2.47634 15.4327 2.40039 15.625 2.40039ZM4.375 2.40039C4.56728 2.40039 4.75173 2.47634 4.8877 2.6123C5.02366 2.74827 5.09961 2.93272 5.09961 3.125V8.65039H6.25C6.44228 8.65039 6.62673 8.72634 6.7627 8.8623C6.89866 8.99827 6.97461 9.18272 6.97461 9.375V10.625C6.97461 10.8173 6.89866 11.0017 6.7627 11.1377C6.62673 11.2737 6.44228 11.3496 6.25 11.3496H2.5C2.30772 11.3496 2.12327 11.2737 1.9873 11.1377C1.85134 11.0017 1.77539 10.8173 1.77539 10.625V9.375C1.77539 9.18272 1.85134 8.99827 1.9873 8.8623C2.12327 8.72634 2.30772 8.65039 2.5 8.65039H3.65039V3.125C3.65039 2.93272 3.72634 2.74827 3.8623 2.6123C3.99827 2.47634 4.18272 2.40039 4.375 2.40039ZM10 2.40039C10.1923 2.40039 10.3767 2.47634 10.5127 2.6123C10.6487 2.74827 10.7246 2.93272 10.7246 3.125V4.90039H11.875C12.0673 4.90039 12.2517 4.97634 12.3877 5.1123C12.5237 5.24827 12.5996 5.43272 12.5996 5.625V6.875C12.5996 7.06728 12.5237 7.25173 12.3877 7.3877C12.2517 7.52366 12.0673 7.59961 11.875 7.59961H8.125C7.93272 7.59961 7.74827 7.52366 7.6123 7.3877C7.47634 7.25173 7.40039 7.06728 7.40039 6.875V5.625C7.40039 5.43272 7.47634 5.24827 7.6123 5.1123C7.74827 4.97634 7.93272 4.90039 8.125 4.90039H9.27539V3.125C9.27539 2.93272 9.35134 2.74827 9.4873 2.6123C9.62327 2.47634 9.80772 2.40039 10 2.40039Z" fill="#C5C5C5" stroke="#C5C5C5" stroke-width="0.2"/>
</g>
<defs>
<clipPath id="clip0_1500_18264">
<rect width="20" height="20" fill="white"/>
</clipPath>
</defs>
</svg>
