<svg width="32" height="32" viewBox="0 0 32 32" fill="none" xmlns="http://www.w3.org/2000/svg">
<g clip-path="url(#clip0_451_512)">
<path d="M16 28C22.6274 28 28 22.6274 28 16C28 9.37258 22.6274 4 16 4C9.37258 4 4 9.37258 4 16C4 22.6274 9.37258 28 16 28Z" stroke="#0D0D0D" stroke-width="2" stroke-linecap="round" stroke-linejoin="round"/>
<path d="M23.052 25.7101L21.882 24.5389C21.7567 24.413 21.6001 24.3229 21.4283 24.2776L18.7495 23.5739C18.5116 23.5113 18.3052 23.3632 18.1696 23.158C18.034 22.9528 17.9788 22.7047 18.0145 22.4614L18.312 20.4364C18.3373 20.2654 18.4064 20.104 18.5127 19.9677C18.6189 19.8314 18.7587 19.725 18.9183 19.6589L22.7245 18.0764C22.9004 18.0034 23.0935 17.9821 23.2811 18.0151C23.4686 18.0481 23.6429 18.134 23.7833 18.2626L26.8745 21.0889" stroke="#0D0D0D" stroke-width="2" stroke-linecap="round" stroke-linejoin="round"/>
<path d="M6.31055 23.0812L7.55055 22.2663C7.68788 22.1755 7.80069 22.0523 7.87897 21.9075C7.95725 21.7627 7.99858 21.6008 7.9993 21.4363L8.02555 16.9075C8.0269 16.7112 8.08555 16.5196 8.1943 16.3563L10.8118 12.4438C10.8869 12.3323 10.9836 12.2372 11.0963 12.164C11.2089 12.0908 11.3351 12.041 11.4675 12.0177C11.5998 11.9944 11.7354 11.9979 11.8663 12.0282C11.9972 12.0584 12.1206 12.1147 12.2293 12.1938L14.7055 13.8188C14.9141 13.9689 15.1721 14.0338 15.4268 14L19.3593 13.4675C19.6021 13.4349 19.8245 13.3144 19.9843 13.1287L22.7568 9.9C22.9126 9.71921 22.9986 9.48866 22.9993 9.25V6.25" stroke="#0D0D0D" stroke-width="2" stroke-linecap="round" stroke-linejoin="round"/>
</g>
<defs>
<clipPath id="clip0_451_512">
<rect width="32" height="32" fill="white"/>
</clipPath>
</defs>
</svg>
