<svg width="32" height="32" viewBox="0 0 32 32" fill="none" xmlns="http://www.w3.org/2000/svg">
<path d="M14.7397 27.8707C14.4253 28.0045 14.1407 27.9299 13.8527 27.8242C13.4003 27.6584 13.064 27.3411 12.7373 27.005C12.396 26.6541 12.0437 26.3139 11.7011 25.9642C11.3073 25.5622 10.9413 25.1421 10.7887 24.578C10.7163 24.3104 10.6279 24.0466 10.5353 23.7851C10.3966 23.3942 10.2414 23.009 10.1057 22.6171C10.0267 22.3888 9.97535 22.1511 9.90551 21.9195C9.8219 21.6422 9.73015 21.3674 9.64512 21.0905C9.58061 20.8804 9.5255 20.6674 9.45821 20.4582C9.38267 20.2234 9.2946 19.9927 9.21854 19.7581C9.14394 19.528 9.07864 19.2948 9.00713 19.0637C8.97387 18.9562 8.93567 18.8503 8.89956 18.7436C8.85093 18.6 8.80111 18.4568 8.75367 18.3128C8.67094 18.0617 8.58718 17.8109 8.50833 17.5585C8.40202 17.2182 8.30372 16.8754 8.19494 16.5359C8.09254 16.2163 7.96186 15.9046 7.87837 15.5804C7.77587 15.1825 7.63591 14.7982 7.73508 14.3564C7.82512 13.9552 8.00632 13.607 8.17811 13.2491C8.44334 12.6965 8.72501 12.1518 8.99928 11.6035C9.33902 10.9244 9.6751 10.2434 10.0187 9.56629C10.352 8.9094 10.6972 8.25849 11.0292 7.60097C11.3517 6.96247 11.6629 6.31829 11.9814 5.6778C12.1633 5.31198 12.3351 4.94014 12.6571 4.66589C12.9607 4.40729 13.2874 4.2084 13.7013 4.20485C15.1847 4.19214 16.6679 4.17359 18.1513 4.17115C18.6344 4.17035 19.0831 4.31765 19.4747 4.61124C19.5682 4.6813 19.6559 4.76058 19.7387 4.84317C20.3881 5.49082 21.0272 6.14915 21.6867 6.78633C22.1818 7.26472 22.3932 7.84087 22.3068 8.50902C22.2743 8.76059 22.1264 8.99799 22.0262 9.23985C21.8016 9.7824 21.4409 10.2619 21.3047 10.8471C21.2187 11.217 21.384 11.4819 21.6252 11.7112C22.0715 12.1356 22.5311 12.546 22.988 12.9591C23.2737 13.2173 23.5779 13.4566 23.8494 13.7287C24.1148 13.9945 24.2807 14.3266 24.3616 14.698C24.428 15.0023 24.4118 15.3019 24.2843 15.5843C24.204 15.7621 24.099 15.9314 23.9868 16.0916C23.7312 16.4565 23.4663 16.8148 23.2017 17.1732C22.9725 17.4837 22.7358 17.7885 22.5076 18.0997C22.2872 18.4003 22.077 18.7084 21.8556 19.0083C21.6219 19.3248 21.378 19.6339 21.1427 19.9493C20.9773 20.1709 20.8206 20.399 20.6567 20.6218C20.407 20.9613 20.1532 21.2978 19.9032 21.6371C19.5587 22.1046 19.2168 22.5742 18.8722 23.0417C18.6227 23.3803 18.3674 23.7145 18.121 24.0552C17.8925 24.3709 17.6753 24.6948 17.4475 25.011C17.2565 25.2762 17.0573 25.5355 16.8616 25.7973C16.6241 26.115 16.3886 26.4343 16.148 26.7497C15.983 26.9662 15.8287 27.1951 15.6375 27.3864C15.3951 27.6288 15.1097 27.819 14.7397 27.8707ZM17.9322 8.68945C18.0687 8.42018 18.2083 8.15241 18.3411 7.88132C18.5923 7.36861 18.8454 6.85672 19.0862 6.33911C19.2232 6.04475 19.0344 5.51734 18.7 5.4331C18.5093 5.38505 18.3133 5.32606 18.1198 5.32628C17.0948 5.32744 16.0698 5.34706 15.0448 5.35759C14.661 5.36154 14.277 5.35618 13.8932 5.35886C13.5926 5.36095 13.3981 5.53781 13.2622 5.78038C13.0905 6.08665 12.9339 6.40148 12.7746 6.7146C12.3674 7.51528 11.9609 8.31631 11.5571 9.11868C11.3253 9.57923 11.0992 10.0427 10.8705 10.5048C10.4995 11.2546 10.1291 12.0048 9.75723 12.7542C9.48807 13.2966 9.21978 13.8394 8.94543 14.3791C8.79953 14.6662 8.91215 15.1605 9.18942 15.2948C9.34028 15.3678 9.51316 15.434 9.67678 15.4356C10.8657 15.4474 12.0547 15.4417 13.2437 15.4422C13.5042 15.4423 13.5897 15.5612 13.5306 15.814C13.4558 16.134 13.3928 16.4567 13.3226 16.7778C13.2126 17.2806 13.1018 17.7832 12.9896 18.2854C12.8918 18.7228 12.7888 19.159 12.6934 19.5968C12.6231 19.919 12.5681 20.2446 12.4937 20.5658C12.4197 20.8852 12.3225 21.1993 12.2487 21.5188C12.1073 22.1306 11.9695 22.7434 11.8419 23.3582C11.7881 23.6173 11.752 23.8815 11.7304 24.1453C11.7153 24.3287 11.9251 24.6291 12.0906 24.663C12.354 24.717 12.6206 24.7284 12.8161 24.4884C12.93 24.3487 13.0362 24.2024 13.1418 24.0561C13.4295 23.6571 13.7107 23.2533 14.0029 22.8575C14.2535 22.518 14.5195 22.1898 14.7717 21.8514C15.0697 21.4518 15.3593 21.0461 15.6541 20.6441C15.8995 20.3095 16.148 19.9771 16.3936 19.6427C16.6992 19.2266 17.0005 18.8073 17.3088 18.3932C17.5827 18.0251 17.8687 17.666 18.1403 17.2962C18.5217 16.7769 18.8952 16.2517 19.2712 15.7284C19.526 15.3737 19.7754 15.0151 20.034 14.6633C20.4059 14.1574 20.8003 13.6672 21.1535 13.1487C21.3875 12.8051 21.1167 12.1908 20.7437 12.106C20.5331 12.058 20.3145 12.0254 20.0991 12.0225C19.3561 12.0126 18.6128 12.0148 17.8698 12.0204C17.5011 12.0232 17.1316 12.0661 16.7643 12.0494C16.4156 12.0335 16.3814 11.9933 16.4485 11.6645C16.4625 11.5957 16.5001 11.5306 16.5326 11.4668C16.87 10.8049 17.209 10.1439 17.5465 9.48208C17.676 9.2282 17.8029 8.97299 17.9322 8.68945Z" fill="#0D0D0D"/>
</svg>
