<svg width="49" height="49" viewBox="0 0 49 49" fill="none" xmlns="http://www.w3.org/2000/svg">
<g clip-path="url(#clip0_1245_1323)">
<path d="M10.9046 38.446C9.17961 36.721 10.3234 33.0966 9.44586 30.9741C8.53461 28.7822 5.19336 27.001 5.19336 24.6572C5.19336 22.3135 8.53461 20.5322 9.44586 18.3404C10.3234 16.2197 9.17961 12.5935 10.9046 10.8685C12.6296 9.14348 16.2559 10.2872 18.3765 9.40973C20.5777 8.49848 22.3496 5.15723 24.6934 5.15723C27.0371 5.15723 28.8184 8.49848 31.0102 9.40973C33.1327 10.2872 36.7571 9.14348 38.4821 10.8685C40.2071 12.5935 39.0634 16.2179 39.9409 18.3404C40.8521 20.5416 44.1934 22.3135 44.1934 24.6572C44.1934 27.001 40.8521 28.7822 39.9409 30.9741C39.0634 33.0966 40.2071 36.721 38.4821 38.446C36.7571 40.171 33.1327 39.0272 31.0102 39.9047C28.8184 40.816 27.0371 44.1572 24.6934 44.1572C22.3496 44.1572 20.5684 40.816 18.3765 39.9047C16.2559 39.0272 12.6296 40.171 10.9046 38.446Z" stroke="#0D0D0D" stroke-width="2" stroke-linecap="round" stroke-linejoin="round"/>
<path d="M17.1934 26.1572L21.6934 30.6572L32.1934 20.1572" stroke="#0D0D0D" stroke-width="2" stroke-linecap="round" stroke-linejoin="round"/>
</g>
<defs>
<clipPath id="clip0_1245_1323">
<rect width="48" height="48" fill="white" transform="translate(0.693359 0.657227)"/>
</clipPath>
</defs>
</svg>
