<svg width="20" height="20" viewBox="0 0 20 20" fill="none" xmlns="http://www.w3.org/2000/svg">
<path d="M6.58364 13.4162L2.27973 11.8303C2.16106 11.7865 2.05866 11.7073 1.98634 11.6036C1.91402 11.4998 1.87524 11.3763 1.87524 11.2498C1.87524 11.1233 1.91402 10.9998 1.98634 10.8961C2.05866 10.7923 2.16106 10.7131 2.27973 10.6693L6.58364 9.0834L8.16958 4.77949C8.21338 4.66082 8.29251 4.55842 8.3963 4.4861C8.50008 4.41377 8.62355 4.375 8.75005 4.375C8.87655 4.375 9.00001 4.41377 9.1038 4.4861C9.20758 4.55842 9.28671 4.66082 9.33051 4.77949L10.9165 9.0834L15.2204 10.6693C15.339 10.7131 15.4414 10.7923 15.5138 10.8961C15.5861 10.9998 15.6248 11.1233 15.6248 11.2498C15.6248 11.3763 15.5861 11.4998 15.5138 11.6036C15.4414 11.7073 15.339 11.7865 15.2204 11.8303L10.9165 13.4162L9.33051 17.7201C9.28671 17.8388 9.20758 17.9412 9.1038 18.0135C9.00001 18.0858 8.87655 18.1246 8.75005 18.1246C8.62355 18.1246 8.50008 18.0858 8.3963 18.0135C8.29251 17.9412 8.21338 17.8388 8.16958 17.7201L6.58364 13.4162Z" fill="white"/>
<path d="M13.0592 5.34867L11.5687 4.74448C11.5276 4.72779 11.4921 4.69765 11.4671 4.65811C11.442 4.61857 11.4286 4.57154 11.4286 4.52334C11.4286 4.47515 11.442 4.42812 11.4671 4.38858C11.4921 4.34904 11.5276 4.3189 11.5687 4.30221L13.0592 3.69802L13.6085 2.05839C13.6237 2.01318 13.6511 1.97417 13.687 1.94662C13.723 1.91907 13.7657 1.9043 13.8095 1.9043C13.8534 1.9043 13.8961 1.91907 13.9321 1.94662C13.968 1.97417 13.9954 2.01318 14.0106 2.05839L14.5598 3.69802L16.0504 4.30221C16.0915 4.3189 16.127 4.34904 16.152 4.38858C16.1771 4.42812 16.1905 4.47515 16.1905 4.52334C16.1905 4.57154 16.1771 4.61857 16.152 4.65811C16.127 4.69765 16.0915 4.72779 16.0504 4.74448L14.5598 5.34867L14.0106 6.9883C13.9954 7.03351 13.968 7.07252 13.9321 7.10007C13.8961 7.12762 13.8534 7.14239 13.8095 7.14239C13.7657 7.14239 13.723 7.12762 13.687 7.10007C13.6511 7.07252 13.6237 7.03351 13.6085 6.9883L13.0592 5.34867Z" fill="white"/>
<path d="M16.0534 8.7082L15.3081 8.43357C15.2875 8.42599 15.2698 8.41228 15.2573 8.39431C15.2448 8.37634 15.238 8.35496 15.238 8.33305C15.238 8.31115 15.2448 8.28977 15.2573 8.2718C15.2698 8.25382 15.2875 8.24012 15.3081 8.23254L16.0534 7.95791L16.328 7.21262C16.3356 7.19207 16.3493 7.17434 16.3673 7.16182C16.3852 7.14929 16.4066 7.14258 16.4285 7.14258C16.4504 7.14258 16.4718 7.14929 16.4898 7.16182C16.5077 7.17434 16.5214 7.19207 16.529 7.21262L16.8037 7.95791L17.5489 8.23254C17.5695 8.24012 17.5872 8.25382 17.5998 8.2718C17.6123 8.28977 17.619 8.31115 17.619 8.33305C17.619 8.35496 17.6123 8.37634 17.5998 8.39431C17.5872 8.41228 17.5695 8.42599 17.5489 8.43357L16.8037 8.7082L16.529 9.45349C16.5214 9.47404 16.5077 9.49177 16.4898 9.50429C16.4718 9.51682 16.4504 9.52353 16.4285 9.52353C16.4066 9.52353 16.3852 9.51682 16.3673 9.50429C16.3493 9.49177 16.3356 9.47404 16.328 9.45349L16.0534 8.7082Z" fill="white"/>
</svg>
