<svg width="19" height="15" viewBox="0 0 19 15" fill="none" xmlns="http://www.w3.org/2000/svg">
<path d="M18.8172 8.44238L16.3172 10.9424C16.2591 11.0005 16.1902 11.0466 16.1143 11.078C16.0385 11.1095 15.9571 11.1257 15.875 11.1257C15.7929 11.1257 15.7115 11.1095 15.6356 11.078C15.5598 11.0466 15.4908 11.0005 15.4328 10.9424L14.1828 9.69238C14.0655 9.57511 13.9996 9.41605 13.9996 9.25019C13.9996 9.08434 14.0655 8.92528 14.1828 8.80801C14.3001 8.69073 14.4591 8.62485 14.625 8.62485C14.7908 8.62485 14.9499 8.69073 15.0672 8.80801L15.875 9.6166L17.9328 7.55801C18.0501 7.44073 18.2091 7.37485 18.375 7.37485C18.5408 7.37485 18.6999 7.44073 18.8172 7.55801C18.9344 7.67528 19.0003 7.83434 19.0003 8.00019C19.0003 8.16605 18.9344 8.32511 18.8172 8.44238ZM10.25 10.3189C11.2297 9.70871 11.9841 8.79599 12.3989 7.71885C12.8138 6.64171 12.8665 5.45877 12.5492 4.34899C12.2318 3.23921 11.5617 2.26298 10.6401 1.56799C9.71851 0.873002 8.59565 0.49707 7.44139 0.49707C6.28713 0.49707 5.16428 0.873002 4.2427 1.56799C3.32112 2.26298 2.65096 3.23921 2.33362 4.34899C2.01627 5.45877 2.06901 6.64171 2.48384 7.71885C2.89867 8.79599 3.65304 9.70871 4.6328 10.3189C3.01952 10.8471 1.56795 11.8338 0.400767 13.2229C0.324354 13.3137 0.275385 13.4244 0.259588 13.542C0.243792 13.6597 0.261821 13.7794 0.311567 13.8871C0.361313 13.9949 0.440718 14.0863 0.540494 14.1506C0.640271 14.2149 0.756292 14.2494 0.874986 14.2502H14C14.1191 14.2503 14.2357 14.2164 14.3362 14.1525C14.4367 14.0885 14.5168 13.9972 14.5671 13.8893C14.6174 13.7813 14.6358 13.6613 14.6202 13.5432C14.6046 13.4251 14.5556 13.314 14.4789 13.2229C13.3109 11.8338 11.8594 10.8471 10.25 10.3189Z" fill="white"/>
</svg>
